<?xml version="1.0" standalone="no"?>
<!DOCTYPE svg PUBLIC "-//W3C//DTD SVG 20010904//EN"
 "http://www.w3.org/TR/2001/REC-SVG-20010904/DTD/svg10.dtd">
<svg version="1.0" xmlns="http://www.w3.org/2000/svg"
 width="29941.000000pt" height="30000.000000pt" viewBox="0 0 29941.000000 30000.000000"
 preserveAspectRatio="xMidYMid meet">

<g transform="translate(0.000000,30000.000000) scale(0.100000,-0.100000)"
fill="#000000" stroke="none">
<path d="M145605 285795 c-2249 -3049 -4093 -5543 -4097 -5542 -4 1 -2147
2246 -4762 4989 l-4755 4988 -61 -108 c-33 -59 -1548 -2765 -3368 -6014 -1819
-3250 -3310 -5908 -3314 -5908 -3 0 -2411 1958 -5350 4351 l-5343 4351 -21
-48 c-11 -27 -1177 -2902 -2589 -6389 -1413 -3487 -2569 -6341 -2571 -6343 -1
-2 -2634 1639 -5850 3647 -3217 2007 -5850 3648 -5851 3647 -2 -2 -797 -2999
-1767 -6660 -971 -3662 -1767 -6660 -1770 -6663 -3 -3 -2821 1293 -6263 2881
l-6258 2885 -7 -27 c-4 -15 -418 -3087 -919 -6827 -501 -3740 -914 -6803 -918
-6807 -3 -3 -2962 929 -6576 2072 -3613 1143 -6571 2077 -6573 2076 -1 -2 -26
-3102 -55 -6889 -29 -3788 -56 -6889 -59 -6892 -3 -3 -3051 550 -6774 1230
-3723 679 -6774 1234 -6779 1233 -7 -2 285 -2497 800 -6843 787 -6639 811
-6840 791 -6843 -11 -2 -3106 166 -6878 374 -3772 208 -6861 375 -6865 371 -3
-4 741 -3014 1654 -6690 914 -3675 1660 -6683 1658 -6685 -1 -2 -3096 -222
-6876 -489 -3781 -267 -6875 -487 -6876 -488 -1 0 1116 -2891 2482 -6424 1367
-3532 2485 -6426 2485 -6431 0 -4 -22 -13 -49 -19 -27 -6 -3059 -609 -6738
-1341 -3678 -732 -6698 -1334 -6710 -1338 -22 -7 164 -352 3251 -6072 1800
-3336 3272 -6067 3270 -6068 -1 -2 -2945 -986 -6542 -2186 l-6540 -2181 4010
-5609 c2206 -3084 4006 -5611 4002 -5615 -5 -5 -2792 -1344 -6194 -2976 -3402
-1632 -6195 -2973 -6208 -2979 -23 -12 161 -212 4638 -5057 2565 -2774 4671
-5053 4682 -5065 l19 -21 -5791 -3738 c-3184 -2055 -5790 -3740 -5789 -3744 0
-3 2373 -1999 5274 -4436 2901 -2436 5274 -4433 5274 -4436 1 -3 -2373 -2001
-5274 -4440 -2901 -2438 -5275 -4436 -5275 -4439 0 -3 2598 -1681 5772 -3730
3175 -2049 5780 -3732 5789 -3740 16 -14 -347 -409 -4661 -5075 -2573 -2783
-4677 -5062 -4675 -5065 2 -3 2798 -1346 6214 -2985 4188 -2009 6209 -2984
6206 -2993 -3 -7 -1805 -2530 -4005 -5607 -2200 -3077 -4000 -5598 -4000
-5602 0 -5 2941 -988 6536 -2187 5451 -1817 6535 -2181 6531 -2195 -2 -9
-1474 -2740 -3271 -6070 -1797 -3329 -3265 -6055 -3264 -6056 2 -1 3044 -607
6760 -1346 3717 -739 6758 -1348 6758 -1354 0 -5 -1118 -2899 -2484 -6430
l-2484 -6420 47 -7 c25 -5 3119 -224 6876 -489 3756 -264 6830 -481 6831 -482
2 -1 -746 -3013 -1660 -6692 -973 -3916 -1658 -6691 -1652 -6692 6 -2 3103
168 6881 376 3779 209 6873 376 6876 373 3 -4 -360 -3085 -806 -6847 -446
-3762 -811 -6841 -810 -6842 0 -1 3052 555 6780 1237 3729 681 6782 1237 6784
1234 3 -2 29 -3103 58 -6891 29 -3787 55 -6888 58 -6891 2 -3 2961 930 6575
2073 3613 1143 6571 2076 6573 2074 2 -2 416 -3074 919 -6827 503 -3752 918
-6825 921 -6829 4 -3 2822 1293 6264 2880 3442 1587 6259 2884 6260 2883 1 -1
794 -2992 1763 -6646 968 -3655 1764 -6653 1768 -6663 6 -15 887 531 5852
3628 3214 2005 5847 3645 5850 3645 3 0 1171 -2875 2594 -6389 l2590 -6390 35
29 c20 15 2426 1974 5346 4353 2921 2379 5313 4323 5316 4321 3 -1 1519 -2708
3370 -6013 1850 -3306 3366 -6010 3369 -6011 3 0 2145 2243 4759 4985 2615
2742 4757 4984 4762 4983 4 -2 1849 -2497 4100 -5545 l4092 -5543 31 42 c553
754 8159 11044 8165 11046 4 1 2147 -2241 4761 -4983 3747 -3929 4756 -4983
4766 -4973 6 7 1520 2709 3364 6003 1844 3295 3358 5995 3364 6001 8 9 1380
-1103 5356 -4341 2940 -2395 5345 -4353 5346 -4352 1 1 1164 2873 2584 6382
1421 3509 2586 6384 2590 6389 5 4 2639 -1633 5856 -3638 3216 -2005 5849
-3645 5850 -3643 2 2 798 3000 1769 6662 970 3662 1766 6659 1767 6661 2 1
2820 -1297 6263 -2885 l6260 -2887 7 31 c4 16 418 3090 919 6830 502 3740 913
6802 915 6804 2 2 2952 -929 6556 -2069 3604 -1140 6563 -2075 6576 -2078 l22
-4 1 413 c1 776 104 13367 109 13373 3 2 3056 -553 6785 -1234 3728 -682 6779
-1239 6780 -1237 1 1 -364 3082 -811 6847 -446 3765 -811 6846 -810 6847 0 1
3097 -169 6880 -378 3784 -208 6882 -377 6885 -374 2 3 -743 3014 -1657 6692
-914 3678 -1660 6688 -1659 6690 2 1 3071 218 6822 482 3751 264 6845 484
6876 488 l56 8 -2479 6405 c-1363 3523 -2481 6416 -2484 6430 l-5 25 6758
1344 c3717 739 6759 1345 6761 1346 1 1 -1468 2726 -3264 6054 -1797 3329
-3268 6061 -3271 6071 -4 16 808 289 6531 2196 3595 1199 6536 2182 6536 2186
0 4 -1802 2528 -4005 5609 -2203 3080 -4005 5604 -4005 5607 0 4 2795 1348
6211 2987 3416 1639 6212 2982 6214 2985 1 3 -2103 2282 -4676 5064 -2574
2783 -4679 5062 -4679 5065 0 3 2605 1687 5790 3741 3184 2054 5789 3737 5790
3740 0 3 -2374 2000 -5275 4439 -2901 2438 -5275 4436 -5274 4440 0 3 2367
1995 5260 4426 2893 2431 5267 4427 5275 4436 13 15 -549 380 -5773 3751
-3184 2054 -5788 3739 -5788 3744 0 6 2105 2287 4679 5070 l4678 5059 -73 35
c-694 328 -12354 5930 -12356 5936 -1 5 1800 2529 4002 5609 2203 3080 4005
5603 4005 5606 0 4 -2937 986 -6527 2183 -3590 1197 -6532 2180 -6539 2184 -8
5 1029 1936 3262 6072 3068 5686 3272 6065 3251 6072 -12 4 -3055 611 -6762
1348 -3706 737 -6740 1342 -6741 1343 0 1 1119 2896 2487 6432 l2488 6430 -37
3 c-20 2 -3114 221 -6876 487 -3761 266 -6840 486 -6842 487 -1 2 745 3011
1658 6686 913 3675 1658 6686 1654 6689 -3 4 -3100 -164 -6881 -372 -3781
-208 -6876 -377 -6878 -374 -3 2 360 3081 806 6841 446 3761 808 6840 805
6844 -4 3 -3054 -550 -6779 -1230 -3724 -680 -6775 -1234 -6778 -1230 -3 3
-30 3105 -60 6892 -30 3788 -55 6888 -56 6889 -1 2 -2959 -933 -6575 -2077
-3615 -1144 -6574 -2079 -6575 -2077 -1 1 -412 3064 -914 6807 -502 3743 -916
6817 -919 6832 l-7 28 -6258 -2886 c-3442 -1587 -6261 -2884 -6264 -2881 -3 4
-794 2982 -1758 6619 -964 3637 -1759 6634 -1766 6660 l-14 48 -5850 -3650
c-4225 -2636 -5852 -3646 -5857 -3636 -4 7 -1168 2881 -2588 6386 -1419 3506
-2582 6375 -2584 6377 -2 2 -2405 -1952 -5341 -4342 -2935 -2391 -5342 -4348
-5348 -4351 -8 -3 -1338 2364 -3379 6008 -1851 3307 -3369 6012 -3372 6011 -4
-2 -2144 -2245 -4757 -4985 -2613 -2741 -4754 -4984 -4757 -4985 -4 -1 -1849
2493 -4100 5543 -2252 3049 -4097 5544 -4100 5544 -4 -1 -1847 -2496 -4097
-5545z m3770 -64395 c1960 -84 3546 -340 5082 -820 1023 -320 2030 -769 2913
-1300 1430 -859 2408 -1873 2945 -3053 554 -1221 878 -3064 985 -5617 26 -610
32 -974 37 -2277 l6 -1393 -5407 0 -5406 0 0 1888 c0 1079 -4 2003 -10 2157
-38 1024 -147 1704 -334 2096 -108 226 -307 436 -528 557 -207 113 -431 171
-745 194 -368 26 -737 -39 -1021 -179 -711 -353 -1115 -1166 -1227 -2473 -46
-537 -38 -1332 20 -1965 93 -1012 330 -1845 671 -2362 355 -538 1042 -1152
2064 -1845 357 -242 627 -412 1290 -811 3518 -2118 5988 -3861 7760 -5475 266
-242 815 -791 1014 -1012 699 -778 1141 -1452 1526 -2329 886 -2023 1319
-4885 1286 -8496 -7 -815 -22 -1255 -67 -1915 -134 -1992 -466 -3564 -993
-4698 -639 -1376 -1814 -2529 -3573 -3507 -229 -128 -768 -400 -1018 -514
-1821 -834 -3824 -1294 -6150 -1411 -749 -38 -1751 -30 -2540 20 -1908 122
-3668 501 -5210 1125 -444 179 -1080 481 -1455 690 -1394 778 -2428 1639
-3195 2660 -379 504 -695 1065 -926 1643 -72 180 -227 646 -303 914 -382 1339
-618 2995 -711 4998 -35 764 -39 1088 -40 2995 l0 1900 5397 3 5397 2 4 -3072
c3 -2067 8 -3140 15 -3278 55 -1001 133 -1549 283 -1988 207 -601 638 -929
1364 -1034 143 -21 673 -17 800 5 289 51 542 146 747 279 332 217 601 564 788
1018 264 643 373 1439 356 2595 -36 2421 -358 3952 -1001 4760 -66 83 -300
321 -471 480 -359 331 -995 845 -1644 1326 -880 653 -1815 1300 -3380 2341
-2857 1900 -4693 3235 -5694 4139 -829 749 -1572 1820 -2154 3104 -298 658
-488 1201 -662 1890 -393 1557 -545 3384 -470 5660 95 2867 517 4941 1293
6350 617 1121 1531 2094 2684 2858 1625 1077 3614 1761 5934 2041 682 83 1305
126 2149 150 211 6 1292 -4 1525 -14z m-56370 -899 c1142 -21 1807 -39 2545
-66 2954 -111 5112 -337 6445 -675 1660 -421 3015 -1094 4030 -2001 691 -617
1420 -1600 1838 -2479 449 -946 657 -1755 791 -3080 115 -1138 173 -2322 228
-4680 16 -689 24 -18975 8 -20005 -40 -2709 -169 -4571 -406 -5840 -228 -1226
-710 -2303 -1404 -3135 -125 -150 -403 -434 -555 -569 -680 -603 -1582 -1105
-2600 -1448 -1151 -388 -2485 -588 -4585 -688 -1150 -54 -1264 -55 -9597 -55
l-7763 0 0 22371 0 22371 5228 -5 c3161 -3 5452 -9 5797 -16z m39633 -4453 l2
-4468 -3875 0 -3875 0 0 -4270 0 -4270 3620 0 3620 0 -2 -4242 -3 -4243 -3617
-3 -3618 -2 0 -4920 0 -4920 4270 0 4270 0 0 -4465 0 -4465 -10100 0 -10100 0
0 22363 c0 12300 3 22367 7 22370 3 4 4369 6 9702 5 l9696 -3 3 -4467z m44372
4453 c316 -6 778 -15 1025 -21 3923 -91 6582 -342 8151 -770 1351 -368 2455
-878 3349 -1547 506 -377 893 -757 1321 -1293 792 -993 1319 -2069 1588 -3240
257 -1123 401 -3298 446 -6760 16 -1166 8 -19613 -8 -20130 -25 -811 -33
-1050 -47 -1380 -88 -2037 -250 -3444 -501 -4351 -273 -985 -694 -1812 -1274
-2499 -137 -162 -431 -459 -590 -594 -437 -374 -1039 -756 -1611 -1022 -1253
-584 -2582 -869 -4724 -1014 -484 -32 -828 -49 -1715 -82 -220 -8 -2555 -12
-8372 -15 l-8068 -4 0 22364 c0 12300 3 22367 8 22371 11 12 10352 0 11022
-13z m39628 -4453 l2 -4468 -3875 0 -3875 0 0 -4270 0 -4270 3620 0 3620 0 -2
-4242 -3 -4243 -3617 -3 -3618 -2 0 -4920 0 -4920 4270 0 4270 0 0 -4465 0
-4465 -10095 0 -10095 0 0 22370 0 22370 9698 -2 9697 -3 3 -4467z m-102253
-52248 c1488 -29 2733 -105 4025 -245 3018 -327 5666 -984 7855 -1948 3206
-1411 5686 -3390 7466 -5957 1765 -2544 2829 -5179 3223 -7975 209 -1483 365
-4687 446 -9140 58 -3235 70 -5554 70 -14350 0 -8185 -10 -10795 -50 -13910
-59 -4552 -175 -8011 -331 -9895 -263 -3182 -1457 -6276 -3502 -9074 -1983
-2712 -4692 -4765 -8060 -6107 -2684 -1069 -5667 -1706 -8962 -1914 -871 -55
-1409 -70 -2485 -69 -1104 0 -1729 17 -2695 74 -4416 261 -8149 1199 -11075
2783 -2833 1534 -4974 3550 -6447 6072 -409 701 -797 1512 -1126 2355 -962
2468 -1525 5361 -1692 8695 -29 595 -54 1494 -55 1988 l0 187 9660 0 9660 0 0
-827 c0 -930 14 -2497 30 -3303 33 -1701 83 -2625 166 -3055 151 -778 482
-1398 1036 -1940 410 -402 803 -646 1336 -829 477 -164 983 -240 1587 -240
402 0 650 28 982 109 728 177 1356 579 1833 1172 407 505 653 1105 739 1803
62 504 101 1571 121 3375 6 484 10 3933 10 7880 l-1 7020 -157 -310 c-163
-320 -265 -505 -417 -755 -618 -1016 -1395 -1896 -2305 -2611 -1711 -1346
-4002 -2165 -6730 -2408 -652 -58 -1060 -75 -1825 -75 -648 -1 -879 6 -1345
40 -2901 207 -5481 1078 -7794 2632 -1412 948 -2605 2037 -3507 3202 -923
1191 -1563 2459 -1959 3879 -560 2011 -921 4686 -1055 7811 -59 1387 -60 1527
-60 6510 0 4911 4 5446 55 7270 97 3466 329 6241 675 8065 405 2139 1296 4205
2620 6075 797 1126 1625 2038 2630 2900 1766 1514 4035 2755 6590 3605 3147
1048 6685 1517 10820 1435z m53775 -10 c1709 -50 3081 -150 4485 -326 4488
-562 7951 -1820 10377 -3770 361 -290 607 -511 943 -848 1460 -1461 2692
-3386 3548 -5541 1123 -2830 1677 -6144 1677 -10025 -1 -3878 -475 -6794
-1410 -8661 -468 -934 -1197 -1841 -2220 -2765 -1090 -983 -2534 -1981 -4263
-2946 -143 -80 -257 -149 -255 -154 1 -5 91 -46 198 -90 2488 -1038 4470
-2535 5915 -4469 482 -646 724 -1053 981 -1652 970 -2264 1533 -6161 1694
-11733 60 -2058 63 -4356 10 -6120 -148 -4875 -728 -8594 -1734 -11117 -884
-2220 -2439 -4176 -4621 -5815 -681 -512 -1491 -1036 -2295 -1485 -3008 -1680
-6914 -2646 -11725 -2898 -947 -49 -1408 -60 -2625 -60 -1107 0 -1403 6 -2190
40 -3720 165 -6856 750 -9476 1769 -873 339 -1724 750 -2569 1241 -2542 1475
-4503 3323 -5887 5545 -443 712 -829 1472 -1115 2193 -1038 2622 -1621 6412
-1773 11527 -46 1546 -46 3637 0 5160 102 3374 399 6322 906 8990 127 670 227
1114 335 1489 865 3007 2957 5441 6307 7341 l252 143 -240 123 c-1080 554
-1956 1188 -2781 2013 -591 592 -1087 1211 -1541 1926 -1292 2033 -2100 4592
-2422 7670 -210 1999 -220 4256 -30 6300 409 4403 1778 7973 4087 10661 1718
2000 3946 3523 6707 4584 2046 786 4407 1316 7035 1580 1070 107 2172 169
3420 194 306 6 1962 -4 2295 -14z m51745 10 c3696 -73 6769 -498 9475 -1311
2622 -788 5033 -2056 6955 -3658 728 -606 1433 -1308 2026 -2016 885 -1058
1778 -2441 2439 -3780 1011 -2049 1588 -4096 1784 -6335 184 -2089 307 -5485
366 -10105 29 -2286 33 -3221 37 -11010 6 -9257 -3 -11937 -47 -15360 -65
-5055 -208 -8895 -386 -10405 -320 -2712 -1299 -5307 -2930 -7766 -555 -837
-1138 -1584 -1770 -2270 -190 -206 -662 -681 -879 -884 -1760 -1646 -3874
-2933 -6350 -3865 -2582 -972 -5408 -1551 -8535 -1750 -1408 -89 -3056 -98
-4630 -25 -4384 204 -8074 1043 -11045 2511 -1927 952 -3669 2223 -5004 3654
-1189 1273 -2107 2663 -2815 4258 -955 2152 -1584 4677 -1880 7547 -121 1166
-182 2275 -202 3678 l-7 462 9662 0 9661 0 0 -1062 c0 -2762 56 -4979 146
-5798 103 -948 500 -1743 1178 -2359 464 -422 943 -675 1584 -835 319 -79 607
-119 1008 -138 728 -34 1349 82 1909 357 891 437 1539 1241 1791 2223 101 394
138 784 174 1852 45 1327 50 2344 50 9890 l0 7035 -133 -265 c-659 -1310
-1480 -2358 -2547 -3250 -426 -355 -992 -740 -1514 -1029 -1411 -781 -3112
-1289 -5021 -1500 -773 -86 -1331 -115 -2220 -115 -648 -1 -879 6 -1345 40
-2617 186 -4984 918 -7115 2199 -1244 748 -2451 1708 -3365 2677 -517 548
-931 1066 -1325 1658 -695 1045 -1169 2099 -1499 3333 -563 2103 -909 4813
-1026 8037 -47 1302 -53 2073 -47 6730 5 3924 9 4573 37 5850 85 3904 316
6863 691 8860 388 2072 1223 4057 2472 5880 1216 1774 2599 3138 4397 4337
1700 1133 3757 2063 5950 2692 2916 835 6133 1204 9845 1131z m-136445 -40240
l0 -38780 -9660 0 -9660 0 0 21648 c0 20841 -2 22651 -30 24287 -55 3281 -172
5378 -356 6372 -118 641 -400 1243 -819 1750 -111 134 -367 392 -500 502 -440
366 -972 672 -1480 854 -1094 392 -2996 637 -5630 727 -806 27 -1136 32 -2767
37 l-1748 5 0 4503 0 4502 263 57 c3437 752 6576 1800 9409 3140 341 161 1132
557 1443 722 3458 1834 6395 4116 8855 6879 373 420 693 800 1074 1278 l237
297 5684 0 5685 0 0 -38780z"/>
<path d="M93632 198149 l3 -14734 200 3 c1526 23 2493 370 2849 1024 277 510
451 1637 526 3408 35 835 35 916 35 10835 0 7654 -3 9837 -13 10195 -39 1397
-97 2073 -212 2483 -192 685 -658 1134 -1371 1321 -448 118 -952 174 -1732
192 l-287 7 2 -14734z"/>
<path d="M177632 198149 l3 -14734 200 3 c919 14 1636 145 2140 392 297 145
506 317 652 535 366 546 562 1948 613 4380 16 738 8 20012 -8 20415 -45 1130
-85 1647 -158 2025 -33 166 -108 396 -180 544 -150 313 -384 569 -685 749
-444 266 -1127 391 -2282 418 l-297 7 2 -14734z"/>
<path d="M114140 151844 c-613 -52 -1119 -237 -1705 -621 -374 -246 -797 -602
-968 -813 -616 -763 -986 -2275 -1111 -4545 -42 -751 -41 -561 -41 -9060 0
-8496 -1 -8294 40 -9005 109 -1864 410 -3177 898 -3912 143 -215 271 -353 517
-559 691 -578 1411 -905 2159 -979 133 -13 531 -13 697 0 532 42 976 158 1384
361 770 384 1292 1026 1605 1974 308 932 476 2195 525 3945 13 480 13 15453 0
16030 -46 2002 -191 3408 -460 4466 -163 643 -370 1108 -670 1509 -532 711
-1292 1105 -2300 1194 -127 11 -499 21 -570 15z"/>
<path d="M166570 151843 c-1098 -49 -1853 -444 -2308 -1207 -448 -750 -695
-2198 -752 -4406 -13 -501 -13 -7038 0 -7485 53 -1826 272 -3094 675 -3920 95
-195 161 -303 282 -463 303 -401 709 -693 1198 -862 240 -82 505 -137 805
-165 219 -21 762 -16 960 9 742 94 1259 322 1662 732 359 365 566 798 732
1534 174 768 269 1686 328 3170 15 399 23 6619 9 7325 -31 1512 -127 2547
-312 3377 -111 497 -251 874 -441 1188 -390 646 -1053 1025 -1991 1140 -265
32 -586 45 -847 33z"/>
<path d="M166490 120564 c-1186 -69 -2008 -528 -2539 -1417 -225 -376 -414
-953 -545 -1662 -165 -892 -254 -1946 -286 -3395 -13 -580 -13 -11243 0
-11860 52 -2480 282 -4129 714 -5105 151 -342 362 -649 631 -921 358 -361 765
-602 1280 -759 725 -220 1702 -234 2439 -34 203 55 343 107 521 194 262 128
445 256 644 449 249 243 433 515 560 825 380 925 588 2639 641 5271 13 646 13
11436 0 11945 -46 1794 -202 3081 -491 4048 -206 692 -457 1131 -880 1542
-519 505 -1174 786 -2014 865 -116 11 -565 20 -675 14z"/>
<path d="M219595 151839 c-440 -34 -903 -185 -1365 -447 -431 -243 -996 -688
-1227 -965 -696 -835 -1080 -2601 -1163 -5347 -14 -458 -14 -16106 0 -16540
62 -1932 283 -3290 685 -4195 144 -324 317 -592 506 -785 154 -156 483 -422
709 -572 461 -306 953 -513 1423 -598 420 -76 1013 -66 1482 26 650 127 1189
397 1614 809 458 444 732 936 956 1715 210 731 349 1707 414 2895 36 654 36
579 36 8810 0 8368 1 8231 -40 9085 -109 2254 -388 3725 -865 4555 -411 715
-994 1179 -1763 1404 -417 122 -980 182 -1402 150z"/>
</g>
</svg>
