<?xml version="1.0" encoding="UTF-8"?>
<!DOCTYPE svg PUBLIC "-//W3C//DTD SVG 1.1//EN" "http://www.w3.org/Graphics/SVG/1.1/DTD/svg11.dtd">
<!-- Creator: CorelDRAW -->
<svg xmlns="http://www.w3.org/2000/svg" xml:space="preserve" width="158.278mm" height="146.11mm" version="1.1" style="shape-rendering:geometricPrecision; text-rendering:geometricPrecision; image-rendering:optimizeQuality; fill-rule:evenodd; clip-rule:evenodd"
viewBox="0 0 15627.29 14425.93"
 xmlns:xlink="http://www.w3.org/1999/xlink"
 xmlns:xodm="http://www.corel.com/coreldraw/odm/2003">
 <defs>
  <style type="text/css">
   <![CDATA[
    .fil1 {fill:#C11F0F}
    .fil0 {fill:white}
    .fil2 {fill:white;fill-rule:nonzero}
   ]]>
  </style>
 </defs>
 <g id="Camada_x0020_1">
  <metadata id="CorelCorpID_0Corel-Layer"/>
  <polygon class="fil0" points="189.37,11707.56 917.47,11707.56 966.96,11707.56 2126.27,11707.56 2126.27,12320.96 966.96,12320.96 966.96,12840.72 2055.39,12840.72 2055.39,13416.81 966.96,13416.81 966.96,14374.82 189.37,14374.82 "/>
  <path class="fil0" d="M6173.3 11703.75l937.98 0c459.6,0 835.64,366.63 835.64,814.74l0 1086.02c0,448.11 -376.04,814.74 -835.64,814.74l-937.98 0c-459.6,0 -835.63,-366.63 -835.63,-814.74l0 -1086.02c0,-448.11 376.03,-814.74 835.63,-814.74zm294.27 621.18l349.45 0c171.22,0 311.32,136.6 311.32,303.54l0 866.07c0,166.94 -140.09,303.54 -311.32,303.54l-349.45 0c-171.23,0 -311.33,-136.6 -311.33,-303.54l0 -866.07c0,-166.94 140.09,-303.54 311.33,-303.54z"/>
  <polygon class="fil0" points="8982.03,11707.56 9759.61,11707.56 10491.59,11707.56 10491.59,12320.96 9759.61,12320.96 9759.61,14374.82 8982.03,14374.82 8982.03,12320.96 8224.27,12320.96 8224.27,11707.56 "/>
  <path class="fil0" d="M2599.91 11707.56l663.57 0 114.02 0 0 1.83 582.63 9.32c383.62,6.64 902.08,52.5 951.61,528.93 20.37,207.17 20.49,409.94 -5.92,606.98 -41.4,156.7 -121.46,256.84 -228.27,317.93 -86.01,52.28 -186.1,87.8 -302.37,104.05 316.59,35.94 523.23,180.91 548.42,505.81 0.99,199.43 1.97,398.87 2.96,598.3 -263.83,0 -527.68,0 -791.52,0 0,-163.79 0,-327.57 0,-491.36 -2.9,-174.51 -73.75,-275.52 -260.86,-277.48 -165.57,0 -331.11,0 -496.68,0l0 762.94 -777.58 0 0 -2667.27zm771.91 614.89l543.21 0c127.39,0 231.6,101.61 231.6,225.8l0 225.8c0,126.46 -106.11,229.91 -235.81,229.91l-538.99 0 0 -681.52z"/>
  <path class="fil0" d="M10247.08 14376.56l827.98 -2664.86 1178.63 0 809.41 2672.1 -825.98 0 -132.54 -468.42 -901.71 2.3 -130.18 463.82 -825.61 -4.95zm1098.52 -999.17l629.56 0 -302.6 -1101.09 -31.72 0 -295.24 1101.09z"/>
  <path class="fil0" d="M13225.14 13554.53c246.77,0 493.55,0 740.32,0 -17.42,177.5 62.44,276.36 255.81,283.43 140.82,1.25 281.65,2.52 422.48,3.77 141.99,-9.84 200.88,-69.99 193.8,-170.05 2.62,-54.16 5.24,-108.33 7.87,-162.49 -0.85,-110.21 -88.96,-150 -247.22,-168.96 -262.5,-28.16 -524.99,-56.33 -787.5,-84.49 -262.96,-40.12 -424.25,-152.56 -496.96,-327.99 -94.27,-217.59 -72.29,-534.95 -53.52,-685.81 51.48,-304 244.96,-477.69 560.68,-539.2 388.81,-14.94 724.93,-11.24 1113.71,4.97 299.18,5.9 596.37,246.64 596.37,519.33 -0.85,89.45 -1.7,178.9 -2.55,268.36 -245.51,0 -491.02,0 -736.53,0 9.39,-139.66 -39.73,-233.98 -201.34,-241.03 -111.29,0.83 -222.57,1.66 -333.87,2.49 -121.82,-1.82 -220.25,26.75 -237.01,161.52 -2.51,129.77 -23.69,265.28 244.66,298.17 254,28.16 508,56.33 762.01,84.49 296.25,49.23 483.38,176.58 560.68,382.65 55.28,202.8 42.96,395.49 25.49,653.5 -55.2,264.58 -204.23,465.11 -527.55,546.66 -365.23,66.62 -1161.19,63.88 -1544.41,-79.51 -137.52,-56.13 -267.51,-161.64 -290.54,-352.84 -17.56,-142.74 -23.55,-253.18 -24.88,-396.96z"/>
  <path class="fil0" d="M940.44 7465.24c-13.75,96.28 -50.1,545 -50.1,545l229.4 565.49c0,0 1361.17,1145.21 1553.73,1200.22 192.56,55.01 1114.08,151.3 2475.75,151.3 1361.67,0 2283.2,82.51 2572.04,-426.39 288.83,-508.9 591.43,-1210.36 591.43,-1980.6 0,-770.24 -440.15,-2750.84 -632.7,-3163.47 -192.55,-412.63 -82.52,-1664.27 82.53,-2090.64 165.05,-426.38 660.21,-1086.58 137.55,-1416.68 -522.66,-330.1 -2241.93,-412.63 -2572.04,-13.75 -330.1,398.87 -1155.35,1361.67 -1664.26,1994.36 -508.91,632.69 -1347.9,1086.59 -1609.24,2131.91 -261.34,1045.32 -825.24,2159.4 -852.76,2269.44 -27.52,110.04 -261.34,233.82 -261.34,233.82zm4781.23 -1959.79c517.01,181.68 887.92,676.36 887.92,1258.23 0,735.99 -593.3,1332.6 -1325.19,1332.6 -731.88,0 -1325.18,-596.61 -1325.18,-1332.6 0,-585.68 375.76,-1083.11 898.08,-1261.83l435.48 667.61 428.89 -664.01z"/>
  <path class="fil0" d="M8954.54 4189.24c35.34,0 1388.92,69.38 1438.3,71.92 -318.21,-888.16 276.06,-1971.41 1275.65,-1951.41 1507.1,30.15 1508.21,1424.76 1464.79,1613.8 -156.6,391.96 -385.21,757.73 -668.16,1103.75 -678.37,951.63 -2422.78,3039.04 -4037.66,4897.28 -235.55,215.11 -1203.45,1107.69 -1439,1322.8 2805.05,0 5553.34,0 8358.39,0 3.34,-695.96 -11.22,-1391.93 -7.88,-2087.89 -959.45,-9.99 -1915.62,22.5 -2875.07,12.51 1752.45,-2716.88 4245.51,-5415.45 1545.84,-8107.84 -583.07,-524.08 -1309.57,-840.63 -2248.71,-849.51 -814.36,-10.32 -1598.57,195.02 -2276.02,694.79 -1022.56,1330.72 -1240.27,2402.17 -530.48,3279.81z"/>
  <path class="fil1" d="M6444.68 0c1091.72,0 1152.4,0 1738.11,0 861.87,97.73 1566.52,984.94 1566.52,1818.15 0,716.41 -455.47,1343.87 -1137.48,1691.27 878.42,808.71 1424.74,1942.1 1424.74,3197.05 0,2456.68 -2092.8,4448.21 -4674.38,4448.21 -1879.9,0 -3500.32,-1056.22 -4242.43,-2578.95l1935.92 -2319.22c-31.84,145.88 -48.63,297 -48.63,451.84 0,1223.93 1045.36,2216.09 2334.89,2216.09 1289.54,0 2334.9,-992.17 2334.9,-2216.09 0,-1223.92 -1045.36,-2216.08 -2334.9,-2216.08 -352.56,0 -686.77,74.3 -986.44,207.08l1979.97 -2371.99 0.02 -0.04c108.19,94.11 253.07,151.68 412.32,151.68 334.85,0 606.3,-254.43 606.3,-568.28 0,-313.84 -271.45,-568.27 -606.3,-568.27 -149.43,0 -286.22,50.69 -391.89,134.69l-0.01 -0.04 -0.11 0.14c-66.18,52.64 -120.16,118.33 -157.38,192.87l-1158.32 1419.53 -4149.74 4920.6 -890.35 -2386.55 4772.22 -5623.69 1672.46 0z"/>
  <path class="fil2" d="M14965.46 442.36c56.42,0 111.47,14.44 165.3,43.49 53.68,28.9 95.65,70.42 125.62,124.25 29.96,53.99 45.01,110.26 45.01,168.66 0,57.94 -14.75,113.75 -44.41,167.13 -29.5,53.53 -70.86,95.05 -124.25,124.55 -53.38,29.66 -109.19,44.41 -167.27,44.41 -58.25,0 -114.06,-14.75 -167.44,-44.41 -53.38,-29.5 -94.89,-71.02 -124.55,-124.55 -29.65,-53.38 -44.56,-109.19 -44.56,-167.13 0,-58.4 15.06,-114.67 45.17,-168.66 30.26,-53.83 72.23,-95.35 125.91,-124.25 53.84,-29.05 108.89,-43.49 165.47,-43.49zm0 55.67c-47.3,0 -93.38,12.16 -138.09,36.34 -44.71,24.18 -79.69,58.85 -104.93,103.87 -25.25,45.01 -37.86,91.85 -37.86,140.52 0,48.51 12.47,94.89 37.25,139.3 24.79,44.4 59.47,79.08 104.03,103.87 44.56,24.78 91.09,37.25 139.61,37.25 48.36,0 94.89,-12.47 139.45,-37.25 44.56,-24.79 79.23,-59.47 103.87,-103.87 24.63,-44.41 36.96,-90.79 36.96,-139.3 0,-48.67 -12.63,-95.5 -37.72,-140.52 -25.1,-45.01 -60.07,-79.69 -104.93,-103.87 -44.86,-24.18 -90.79,-36.34 -137.62,-36.34zm-147.67 466.26l0 -361.33 124.39 0c42.58,0 73.3,3.35 92.31,10.04 19.16,6.69 34.22,18.25 45.62,34.98 11.26,16.57 16.88,34.21 16.88,52.92 0,26.3 -9.43,49.43 -28.44,68.89 -18.86,19.62 -43.96,30.57 -75.28,33 12.78,5.33 23.11,11.71 30.73,19.16 14.59,14.15 32.38,38.02 53.52,71.63l44.1 70.71 -70.87 0 -32.24 -56.87c-25.25,-44.86 -45.77,-73 -61.28,-84.26 -10.64,-8.2 -26.15,-12.31 -46.69,-12.16l-34.37 0 0 153.29 -58.39 0zm58.39 -203.48l70.87 0c33.91,0 57.03,-5.02 69.34,-15.06 12.32,-10.03 18.56,-23.42 18.56,-39.84 0,-10.64 -3.05,-20.23 -8.97,-28.59 -5.93,-8.51 -14.15,-14.75 -24.63,-18.86 -10.65,-4.11 -30.11,-6.23 -58.71,-6.23l-66.46 0 0 108.58z"/>
 </g>
</svg>
